<?xml version="1.0" standalone="no"?>
<!DOCTYPE svg PUBLIC "-//W3C//DTD SVG 20010904//EN"
 "http://www.w3.org/TR/2001/REC-SVG-20010904/DTD/svg10.dtd">
<svg version="1.0" xmlns="http://www.w3.org/2000/svg"
 width="696.000000pt" height="696.000000pt" viewBox="0 0 696.000000 696.000000"
 preserveAspectRatio="xMidYMid meet">
<g transform="translate(0.000000,696.000000) scale(0.100000,-0.100000)"
fill="#000000" stroke="none">
<path d="M6905 6612 c-3 -3 -11 -7 -18 -8 -7 -2 -55 -12 -107 -24 -52 -12
-104 -24 -115 -26 -19 -3 -499 -113 -520 -118 -5 -2 -28 -6 -50 -11 -22 -4
-48 -12 -58 -17 -23 -12 -14 -28 74 -139 38 -48 69 -92 69 -97 0 -8 -132 -120
-235 -199 -8 -7 -150 -123 -192 -158 -7 -5 -18 -15 -25 -20 -7 -6 -56 -46
-108 -89 -52 -43 -112 -92 -134 -109 -21 -18 -45 -38 -52 -44 -7 -7 -17 -13
-23 -13 -6 0 -11 -3 -11 -8 0 -4 -26 -27 -57 -52 -32 -25 -65 -50 -73 -57 -8
-7 -46 -37 -85 -69 -38 -31 -83 -67 -100 -81 -16 -13 -45 -36 -64 -51 -18 -15
-61 -49 -95 -77 -34 -27 -80 -65 -104 -83 l-41 -33 -62 58 c-34 32 -70 65 -79
74 -9 8 -54 45 -101 82 -46 37 -91 73 -98 80 -8 7 -51 35 -95 64 -45 29 -85
56 -91 60 -62 49 -458 234 -530 247 -5 1 -14 4 -20 7 -5 4 -23 10 -40 14 -35
9 -30 8 -120 33 -80 23 -201 49 -260 57 -22 3 -51 8 -65 10 -28 6 -69 11 -155
22 -71 8 -486 9 -530 1 -26 -6 -110 -17 -170 -24 -28 -3 -82 -13 -130 -25 -22
-5 -51 -12 -65 -15 -79 -16 -326 -97 -395 -129 -16 -8 -78 -37 -137 -64 -110
-51 -301 -158 -306 -173 -2 -4 -8 -8 -14 -8 -11 0 -101 -61 -106 -72 -2 -5
-10 -8 -17 -8 -7 0 -15 -3 -17 -7 -1 -5 -30 -28 -63 -53 -33 -24 -66 -50 -73
-57 -7 -6 -33 -29 -59 -50 -102 -84 -286 -277 -368 -388 -17 -22 -32 -42 -35
-45 -3 -3 -9 -12 -15 -21 -35 -56 -111 -165 -117 -167 -5 -2 -8 -12 -8 -22 0
-9 -7 -23 -15 -30 -8 -7 -15 -16 -15 -20 0 -5 -15 -34 -33 -67 -36 -64 -106
-216 -122 -263 -1 -3 -7 -18 -14 -35 -23 -55 -85 -250 -83 -259 2 -4 -3 -14
-9 -22 -6 -8 -9 -14 -6 -14 3 0 1 -15 -4 -32 -11 -36 -38 -158 -45 -198 -9
-55 -13 -75 -14 -75 -1 0 -3 -13 -5 -30 -1 -16 -6 -52 -9 -80 -14 -124 -18
-191 -18 -340 0 -88 3 -178 6 -200 3 -22 8 -65 11 -95 11 -113 23 -181 51
-300 30 -127 94 -329 128 -405 131 -289 265 -516 424 -714 80 -100 301 -327
386 -396 27 -22 55 -44 61 -50 6 -5 18 -14 27 -20 51 -33 144 -100 146 -107 2
-4 8 -8 13 -8 5 0 28 -12 52 -27 100 -65 298 -163 417 -208 41 -15 89 -33 105
-40 49 -21 257 -80 314 -90 19 -3 37 -7 40 -9 3 -2 24 -7 46 -10 22 -4 47 -8
55 -11 8 -2 33 -6 55 -10 22 -3 54 -8 70 -11 240 -42 635 -33 885 21 41 9 86
19 100 21 83 16 303 89 424 141 97 41 295 145 353 184 23 16 44 29 47 29 12 0
242 164 303 216 12 11 36 30 52 43 32 24 208 198 272 267 59 64 152 184 204
264 28 41 53 77 58 78 4 2 7 8 7 13 0 4 19 41 43 81 60 102 130 249 170 354
33 85 95 272 102 304 2 8 11 47 20 85 9 39 19 79 21 90 2 11 6 31 9 45 12 56
16 77 21 116 2 23 7 53 9 65 26 133 27 567 1 709 -3 14 -7 42 -10 63 -3 20 -9
54 -12 75 -3 20 -17 82 -31 137 -14 55 -26 105 -27 110 -1 6 -4 15 -7 20 -5 9
-17 47 -24 80 -2 6 -19 55 -40 110 -76 205 -256 542 -339 635 -14 17 -26 36
-26 44 0 7 33 40 73 72 39 32 81 66 92 75 71 59 215 176 300 244 55 44 105 85
111 90 6 6 28 24 49 40 70 54 208 166 220 178 7 7 25 21 41 32 15 11 44 35 63
52 20 18 39 33 43 33 4 0 15 8 25 18 10 10 79 67 153 127 74 60 137 112 140
115 3 3 22 19 43 35 l38 28 22 -24 c12 -13 35 -42 51 -63 17 -22 48 -57 70
-78 48 -47 53 -44 90 62 14 41 35 102 47 135 12 33 48 137 80 230 33 94 62
177 66 185 3 8 7 17 8 20 17 59 27 86 50 145 38 98 41 121 16 128 -11 2 -22 2
-26 -1z m-3913 -1156 c53 -3 103 -8 110 -10 11 -4 63 -13 123 -20 11 -2 34 -6
50 -10 17 -4 59 -14 95 -22 71 -16 237 -68 285 -89 17 -7 46 -18 65 -25 19 -7
89 -40 155 -73 66 -33 130 -65 142 -71 13 -6 23 -14 23 -18 0 -5 5 -8 11 -8
24 0 258 -174 363 -270 260 -238 475 -549 604 -875 35 -90 74 -207 87 -260 44
-188 53 -235 61 -310 2 -16 6 -57 10 -90 14 -118 8 -387 -11 -525 -10 -67 -37
-205 -52 -260 -8 -30 -16 -64 -18 -75 -6 -28 -63 -193 -79 -230 -8 -16 -26
-59 -42 -95 -58 -133 -193 -369 -236 -412 -10 -10 -18 -21 -18 -26 0 -4 -13
-20 -28 -37 -15 -16 -35 -42 -44 -56 -29 -46 -244 -262 -317 -319 -39 -30 -71
-58 -71 -62 0 -5 -6 -8 -14 -8 -8 0 -16 -4 -18 -8 -1 -5 -43 -36 -93 -69 -259
-175 -548 -296 -852 -358 -108 -22 -159 -29 -283 -41 -113 -11 -411 -5 -490
10 -14 3 -45 8 -70 11 -25 3 -56 8 -70 11 -14 3 -47 10 -75 15 -27 6 -57 13
-65 16 -8 3 -22 7 -30 8 -50 9 -213 64 -305 102 -90 37 -250 116 -253 125 -2
4 -8 8 -13 8 -16 0 -140 80 -255 166 -138 103 -316 276 -432 420 -47 58 -191
281 -232 359 -97 187 -202 475 -225 620 -2 11 -6 31 -9 45 -3 14 -9 45 -12 70
-3 25 -7 52 -9 60 -24 87 -25 502 -1 625 2 11 7 42 10 68 14 96 23 135 57 257
129 457 383 863 729 1160 41 36 77 67 80 70 3 3 28 22 55 41 153 110 230 157
360 222 96 48 306 133 346 141 13 2 44 11 69 19 38 13 107 30 215 53 11 2 40
6 65 9 25 2 56 7 70 10 13 2 61 8 105 11 44 3 81 7 82 8 4 3 206 -2 295 -8z"/>
<path d="M2657 5204 c-2 -2 -32 -6 -68 -9 -36 -3 -76 -8 -90 -11 -13 -2 -40
-7 -59 -9 -19 -2 -44 -7 -55 -10 -11 -2 -47 -12 -80 -20 -33 -9 -70 -18 -82
-21 -32 -6 -190 -63 -243 -86 -166 -74 -415 -219 -428 -250 -2 -5 -10 -8 -17
-8 -7 0 -15 -3 -17 -7 -1 -5 -25 -26 -53 -48 -60 -48 -208 -193 -262 -255 -69
-83 -183 -235 -183 -246 0 -3 -9 -18 -20 -34 -80 -112 -228 -468 -254 -610 -2
-14 -9 -45 -14 -70 -15 -64 -24 -130 -37 -255 -5 -49 -5 -295 0 -350 12 -128
43 -307 65 -375 4 -14 13 -45 20 -70 25 -88 94 -256 148 -360 49 -96 145 -251
175 -282 7 -7 32 -39 56 -72 48 -65 206 -227 291 -298 123 -104 261 -194 420
-274 107 -53 330 -140 330 -127 0 3 6 1 13 -4 11 -9 34 -16 137 -39 153 -35
277 -48 460 -48 221 -1 346 15 555 69 135 35 333 109 347 129 4 6 8 8 8 4 0
-13 149 69 273 151 240 157 488 413 632 652 22 35 43 65 47 67 4 2 8 8 8 14 0
5 25 60 55 121 68 141 135 333 158 457 3 14 8 36 11 50 40 169 51 515 22 665
-2 11 -7 43 -10 70 -4 28 -9 57 -11 65 -4 16 -13 58 -20 100 -2 14 -12 50 -20
80 -22 74 -21 73 -28 90 -3 8 -12 35 -20 60 -25 77 -70 185 -80 191 -5 3 -8 9
-8 13 1 3 -16 39 -36 79 -21 39 -40 76 -42 81 -2 5 -32 51 -66 102 l-63 94
-28 -23 c-16 -12 -37 -29 -48 -37 -40 -32 -112 -90 -126 -102 -155 -129 -188
-146 -217 -117 -14 14 -52 5 -78 -18 -11 -10 -49 -42 -85 -71 -36 -28 -80 -66
-98 -82 -18 -17 -35 -30 -37 -30 -3 0 -15 -9 -27 -19 -13 -11 -104 -86 -203
-166 -99 -81 -191 -157 -205 -168 -22 -19 -59 -50 -159 -132 -13 -11 -33 -28
-43 -37 -10 -10 -22 -18 -27 -18 -5 0 -11 -4 -13 -8 -1 -4 -39 -38 -83 -75
-44 -37 -87 -75 -96 -85 -48 -51 -54 -120 -16 -185 28 -47 89 -107 110 -107
12 0 57 27 67 40 10 14 49 30 72 30 30 0 71 -36 97 -86 27 -51 19 -78 -34
-120 -20 -16 -47 -38 -59 -49 -12 -12 -45 -39 -72 -60 -27 -22 -53 -45 -59
-51 -23 -25 -153 -124 -164 -124 -6 0 -11 -4 -11 -9 0 -5 -13 -16 -29 -24 -26
-13 -33 -13 -61 1 -69 33 -104 133 -59 170 81 66 85 93 24 168 -68 82 -146 99
-227 48 -59 -38 -52 -43 -167 106 -194 251 -254 627 -140 885 34 76 104 165
130 165 6 0 7 -17 3 -42 -16 -110 -20 -148 -18 -198 2 -93 13 -156 40 -225 4
-11 8 -22 8 -25 2 -12 51 -86 60 -92 6 -4 22 -15 35 -25 35 -26 111 -49 156
-47 135 8 211 41 319 139 14 13 293 244 361 299 28 22 52 43 55 46 3 3 39 32
80 65 41 33 80 65 86 70 6 6 26 21 44 35 18 14 47 37 64 51 41 35 216 178 252
206 21 17 28 32 30 62 1 40 25 81 56 97 16 8 248 174 293 209 19 15 19 16 -15
48 -19 18 -57 50 -85 72 -27 21 -52 42 -55 45 -3 3 -27 22 -55 41 -27 18 -52
37 -55 40 -20 23 -261 154 -355 194 -57 24 -197 76 -215 80 -8 2 -49 13 -90
24 -41 11 -93 23 -115 27 -22 3 -43 8 -46 9 -3 2 -32 7 -65 11 -32 3 -72 8
-89 11 -36 5 -373 11 -378 7z"/>
</g>
</svg>
